<svg xmlns="http://www.w3.org/2000/svg" viewBox="0 0 800 800" width="800" height="800" role="img" aria-label="Kagami logo">
  <defs>
    <linearGradient id="kagamiLoopGradient" x1="120" y1="120" x2="680" y2="680" gradientUnits="userSpaceOnUse">
      <stop offset="0%" stop-color="#0071e3" />
      <stop offset="52%" stop-color="#0a84ff" />
      <stop offset="100%" stop-color="#0c9488" />
    </linearGradient>
  </defs>
        <g transform="rotate(842.1471182703765, 400, 400)">
          <path d="M 719.24 400.00 L 719.07 405.57 L 718.68 411.13 L 718.07 416.67 L 717.23 422.18 L 716.18 427.66 L 714.92 433.10 L 713.44 438.49 L 711.74 443.81 L 709.84 449.07 L 707.74 454.26 L 705.43 459.37 L 702.92 464.39 L 700.23 469.31 L 697.34 474.14 L 694.28 478.85 L 691.03 483.45 L 687.62 487.93 L 684.04 492.29 L 680.30 496.51 L 676.41 500.60 L 672.37 504.55 L 668.20 508.36 L 663.90 512.02 L 659.47 515.52 L 654.93 518.87 L 650.27 522.07 L 645.52 525.10 L 640.68 527.97 L 635.75 530.68 L 630.74 533.22 L 625.67 535.60 L 620.54 537.81 L 615.35 539.85 L 610.12 541.73 L 604.85 543.44 L 599.56 544.99 L 594.25 546.38 L 588.92 547.60 L 583.59 548.67 L 578.27 549.58 L 572.95 550.34 L 567.65 550.95 L 562.38 551.42 L 557.13 551.74 L 551.93 551.93 L 546.77 551.98 L 541.65 551.91 L 536.60 551.71 L 531.60 551.39 L 526.68 550.97 L 521.82 550.44 L 517.04 549.80 L 512.34 549.08 L 507.72 548.27 L 503.19 547.37 L 498.75 546.41 L 494.41 545.37 L 490.16 544.28 L 486.00 543.13 L 481.95 541.94 L 478.00 540.71 L 474.14 539.44 L 470.39 538.15 L 466.74 536.85 L 463.20 535.53 L 459.75 534.20 L 456.41 532.88 L 453.16 531.57 L 450.01 530.27 L 446.95 529.00 L 443.99 527.75 L 441.12 526.54 L 438.33 525.37 L 435.63 524.24 L 433.00 523.16 L 430.45 522.14 L 427.98 521.18 L 425.57 520.29 L 423.22 519.46 L 420.93 518.71 L 418.69 518.03 L 416.50 517.44 L 414.36 516.92 L 412.24 516.50 L 410.16 516.16 L 408.10 515.91 L 406.07 515.75 L 404.04 515.68 L 402.02 515.71 L 400.00 515.83 L 397.97 516.04 L 395.94 516.35 L 393.88 516.75 L 391.80 517.24 L 389.69 517.82 L 387.55 518.49 L 385.36 519.24 L 383.12 520.08 L 380.84 520.99 L 378.49 521.98 L 376.08 523.05 L 373.60 524.18 L 371.05 525.38 L 368.43 526.64 L 365.71 527.95 L 362.92 529.32 L 360.03 530.72 L 357.05 532.17 L 353.98 533.65 L 350.81 535.16 L 347.53 536.69 L 344.15 538.23 L 340.67 539.78 L 337.08 541.32 L 333.38 542.87 L 329.57 544.40 L 325.66 545.91 L 321.63 547.39 L 317.50 548.83 L 313.26 550.24 L 308.91 551.59 L 304.46 552.89 L 299.91 554.13 L 295.25 555.29 L 290.50 556.38 L 285.66 557.38 L 280.72 558.29 L 275.70 559.10 L 270.59 559.81 L 265.41 560.40 L 260.15 560.88 L 254.82 561.24 L 249.43 561.46 L 243.99 561.56 L 238.49 561.51 L 232.95 561.32 L 227.37 560.98 L 221.77 560.48 L 216.14 559.83 L 210.49 559.02 L 204.83 558.04 L 199.18 556.90 L 193.53 555.59 L 187.90 554.10 L 182.29 552.44 L 176.71 550.61 L 171.17 548.60 L 165.68 546.42 L 160.25 544.06 L 154.89 541.52 L 149.59 538.80 L 144.38 535.91 L 139.27 532.85 L 134.25 529.62 L 129.33 526.21 L 124.54 522.64 L 119.87 518.91 L 115.33 515.02 L 110.92 510.97 L 106.67 506.76 L 102.57 502.41 L 98.63 497.92 L 94.86 493.29 L 91.26 488.53 L 87.85 483.64 L 84.62 478.63 L 81.58 473.51 L 78.74 468.29 L 76.11 462.96 L 73.68 457.54 L 71.46 452.03 L 69.47 446.45 L 67.69 440.80 L 66.13 435.09 L 64.80 429.33 L 63.70 423.52 L 62.82 417.67 L 62.18 411.80 L 61.77 405.90 L 61.60 400.00 L 61.66 394.09 L 61.95 388.19 L 62.47 382.31 L 63.23 376.45 L 64.22 370.62 L 65.43 364.84 L 66.88 359.10 L 68.54 353.42 L 70.43 347.80 L 72.53 342.26 L 74.85 336.80 L 77.38 331.42 L 80.11 326.15 L 83.04 320.97 L 86.17 315.91 L 89.49 310.96 L 92.99 306.14 L 96.66 301.44 L 100.51 296.88 L 104.52 292.45 L 108.68 288.17 L 113.00 284.04 L 117.46 280.07 L 122.05 276.25 L 126.77 272.59 L 131.61 269.10 L 136.56 265.77 L 141.61 262.61 L 146.75 259.62 L 151.98 256.81 L 157.29 254.17 L 162.67 251.70 L 168.11 249.41 L 173.60 247.29 L 179.14 245.35 L 184.71 243.58 L 190.31 241.99 L 195.93 240.56 L 201.56 239.30 L 207.19 238.21 L 212.82 237.29 L 218.44 236.52 L 224.03 235.91 L 229.60 235.45 L 235.14 235.14 L 240.64 234.98 L 246.09 234.95 L 251.49 235.06 L 256.83 235.30 L 262.11 235.67 L 267.31 236.15 L 272.45 236.74 L 277.50 237.44 L 282.47 238.24 L 287.36 239.13 L 292.15 240.11 L 296.85 241.16 L 301.45 242.29 L 305.96 243.49 L 310.36 244.74 L 314.66 246.04 L 318.86 247.39 L 322.95 248.78 L 326.93 250.19 L 330.81 251.63 L 334.59 253.09 L 338.26 254.55 L 341.83 256.02 L 345.29 257.48 L 348.65 258.93 L 351.92 260.36 L 355.09 261.77 L 358.16 263.15 L 361.14 264.49 L 364.04 265.80 L 366.85 267.05 L 369.59 268.26 L 372.24 269.41 L 374.83 270.50 L 377.35 271.52 L 379.80 272.47 L 382.20 273.36 L 384.55 274.16 L 386.85 274.89 L 389.11 275.53 L 391.34 276.09 L 393.53 276.57 L 395.70 276.96 L 397.86 277.26 L 400.00 277.47 L 402.14 277.60 L 404.27 277.63 L 406.42 277.57 L 408.57 277.43 L 410.74 277.20 L 412.94 276.88 L 415.17 276.48 L 417.43 276.00 L 419.73 275.44 L 422.08 274.80 L 424.48 274.09 L 426.93 273.31 L 429.44 272.46 L 432.03 271.55 L 434.68 270.59 L 437.40 269.57 L 440.20 268.51 L 443.08 267.40 L 446.05 266.26 L 449.10 265.09 L 452.25 263.89 L 455.48 262.67 L 458.81 261.44 L 462.24 260.21 L 465.76 258.97 L 469.38 257.74 L 473.10 256.53 L 476.92 255.34 L 480.84 254.17 L 484.85 253.04 L 488.96 251.95 L 493.17 250.90 L 497.47 249.92 L 501.86 248.99 L 506.34 248.13 L 510.91 247.35 L 515.56 246.65 L 520.29 246.04 L 525.10 245.52 L 529.97 245.10 L 534.92 244.79 L 539.93 244.59 L 544.99 244.51 L 550.11 244.55 L 555.28 244.72 L 560.48 245.03 L 565.72 245.47 L 570.98 246.05 L 576.27 246.77 L 581.56 247.65 L 586.87 248.68 L 592.17 249.86 L 597.47 251.20 L 602.75 252.70 L 608.00 254.36 L 613.23 256.18 L 618.41 258.16 L 623.55 260.31 L 628.63 262.63 L 633.64 265.11 L 638.59 267.75 L 643.45 270.55 L 648.23 273.52 L 652.91 276.65 L 657.49 279.93 L 661.96 283.37 L 666.31 286.96 L 670.53 290.70 L 674.61 294.59 L 678.56 298.61 L 682.36 302.78 L 686.01 307.07 L 689.49 311.49 L 692.81 316.04 L 695.95 320.70 L 698.91 325.47 L 701.69 330.35 L 704.29 335.32 L 706.68 340.39 L 708.88 345.54 L 710.88 350.76 L 712.67 356.06 L 714.25 361.42 L 715.61 366.83 L 716.77 372.29 L 717.70 377.78 L 718.42 383.31 L 718.91 388.86 L 719.19 394.43 L 719.24 400.00 L 515.83 400.00 L 516.04 397.97 L 516.35 395.94 L 516.75 393.88 L 517.24 391.80 L 517.82 389.69 L 518.49 387.55 L 519.24 385.36 L 520.08 383.12 L 520.99 380.84 L 521.98 378.49 L 523.05 376.08 L 524.18 373.60 L 525.38 371.05 L 526.64 368.43 L 527.95 365.71 L 529.32 362.92 L 530.72 360.03 L 532.17 357.05 L 533.65 353.98 L 535.16 350.81 L 536.69 347.53 L 538.23 344.15 L 539.78 340.67 L 541.32 337.08 L 542.87 333.38 L 544.40 329.57 L 545.91 325.66 L 547.39 321.63 L 548.83 317.50 L 550.24 313.26 L 551.59 308.91 L 552.89 304.46 L 554.13 299.91 L 555.29 295.25 L 556.38 290.50 L 557.38 285.66 L 558.29 280.72 L 559.10 275.70 L 559.81 270.59 L 560.40 265.41 L 560.88 260.15 L 561.24 254.82 L 561.46 249.43 L 561.56 243.99 L 561.51 238.49 L 561.32 232.95 L 560.98 227.37 L 560.48 221.77 L 559.83 216.14 L 559.02 210.49 L 558.04 204.83 L 556.90 199.18 L 555.59 193.53 L 554.10 187.90 L 552.44 182.29 L 550.61 176.71 L 548.60 171.17 L 546.42 165.68 L 544.06 160.25 L 541.52 154.89 L 538.80 149.59 L 535.91 144.38 L 532.85 139.27 L 529.62 134.25 L 526.21 129.33 L 522.64 124.54 L 518.91 119.87 L 515.02 115.33 L 510.97 110.92 L 506.76 106.67 L 502.41 102.57 L 497.92 98.63 L 493.29 94.86 L 488.53 91.26 L 483.64 87.85 L 478.63 84.62 L 473.51 81.58 L 468.29 78.74 L 462.96 76.11 L 457.54 73.68 L 452.03 71.46 L 446.45 69.47 L 440.80 67.69 L 435.09 66.13 L 429.33 64.80 L 423.52 63.70 L 417.67 62.82 L 411.80 62.18 L 405.90 61.77 L 400.00 61.60 L 394.09 61.66 L 388.19 61.95 L 382.31 62.47 L 376.45 63.23 L 370.62 64.22 L 364.84 65.43 L 359.10 66.88 L 353.42 68.54 L 347.80 70.43 L 342.26 72.53 L 336.80 74.85 L 331.42 77.38 L 326.15 80.11 L 320.97 83.04 L 315.91 86.17 L 310.96 89.49 L 306.14 92.99 L 301.44 96.66 L 296.88 100.51 L 292.45 104.52 L 288.17 108.68 L 284.04 113.00 L 280.07 117.46 L 276.25 122.05 L 272.59 126.77 L 269.10 131.61 L 265.77 136.56 L 262.61 141.61 L 259.62 146.75 L 256.81 151.98 L 254.17 157.29 L 251.70 162.67 L 249.41 168.11 L 247.29 173.60 L 245.35 179.14 L 243.58 184.71 L 241.99 190.31 L 240.56 195.93 L 239.30 201.56 L 238.21 207.19 L 237.29 212.82 L 236.52 218.44 L 235.91 224.03 L 235.45 229.60 L 235.14 235.14 L 234.98 240.64 L 234.95 246.09 L 235.06 251.49 L 235.30 256.83 L 235.67 262.11 L 236.15 267.31 L 236.74 272.45 L 237.44 277.50 L 238.24 282.47 L 239.13 287.36 L 240.11 292.15 L 241.16 296.85 L 242.29 301.45 L 243.49 305.96 L 244.74 310.36 L 246.04 314.66 L 247.39 318.86 L 248.78 322.95 L 250.19 326.93 L 251.63 330.81 L 253.09 334.59 L 254.55 338.26 L 256.02 341.83 L 257.48 345.29 L 258.93 348.65 L 260.36 351.92 L 261.77 355.09 L 263.15 358.16 L 264.49 361.14 L 265.80 364.04 L 267.05 366.85 L 268.26 369.59 L 269.41 372.24 L 270.50 374.83 L 271.52 377.35 L 272.47 379.80 L 273.36 382.20 L 274.16 384.55 L 274.89 386.85 L 275.53 389.11 L 276.09 391.34 L 276.57 393.53 L 276.96 395.70 L 277.26 397.86 L 277.47 400.00 L 277.60 402.14 L 277.63 404.27 L 277.57 406.42 L 277.43 408.57 L 277.20 410.74 L 276.88 412.94 L 276.48 415.17 L 276.00 417.43 L 275.44 419.73 L 274.80 422.08 L 274.09 424.48 L 273.31 426.93 L 272.46 429.44 L 271.55 432.03 L 270.59 434.68 L 269.57 437.40 L 268.51 440.20 L 267.40 443.08 L 266.26 446.05 L 265.09 449.10 L 263.89 452.25 L 262.67 455.48 L 261.44 458.81 L 260.21 462.24 L 258.97 465.76 L 257.74 469.38 L 256.53 473.10 L 255.34 476.92 L 254.17 480.84 L 253.04 484.85 L 251.95 488.96 L 250.90 493.17 L 249.92 497.47 L 248.99 501.86 L 248.13 506.34 L 247.35 510.91 L 246.65 515.56 L 246.04 520.29 L 245.52 525.10 L 245.10 529.97 L 244.79 534.92 L 244.59 539.93 L 244.51 544.99 L 244.55 550.11 L 244.72 555.28 L 245.03 560.48 L 245.47 565.72 L 246.05 570.98 L 246.77 576.27 L 247.65 581.56 L 248.68 586.87 L 249.86 592.17 L 251.20 597.47 L 252.70 602.75 L 254.36 608.00 L 256.18 613.23 L 258.16 618.41 L 260.31 623.55 L 262.63 628.63 L 265.11 633.64 L 267.75 638.59 L 270.55 643.45 L 273.52 648.23 L 276.65 652.91 L 279.93 657.49 L 283.37 661.96 L 286.96 666.31 L 290.70 670.53 L 294.59 674.61 L 298.61 678.56 L 302.78 682.36 L 307.07 686.01 L 311.49 689.49 L 316.04 692.81 L 320.70 695.95 L 325.47 698.91 L 330.35 701.69 L 335.32 704.29 L 340.39 706.68 L 345.54 708.88 L 350.76 710.88 L 356.06 712.67 L 361.42 714.25 L 366.83 715.61 L 372.29 716.77 L 377.78 717.70 L 383.31 718.42 L 388.86 718.91 L 394.43 719.19 L 400.00 719.24 L 405.57 719.07 L 411.13 718.68 L 416.67 718.07 L 422.18 717.23 L 427.66 716.18 L 433.10 714.92 L 438.49 713.44 L 443.81 711.74 L 449.07 709.84 L 454.26 707.74 L 459.37 705.43 L 464.39 702.92 L 469.31 700.23 L 474.14 697.34 L 478.85 694.28 L 483.45 691.03 L 487.93 687.62 L 492.29 684.04 L 496.51 680.30 L 500.60 676.41 L 504.55 672.37 L 508.36 668.20 L 512.02 663.90 L 515.52 659.47 L 518.87 654.93 L 522.07 650.27 L 525.10 645.52 L 527.97 640.68 L 530.68 635.75 L 533.22 630.74 L 535.60 625.67 L 537.81 620.54 L 539.85 615.35 L 541.73 610.12 L 543.44 604.85 L 544.99 599.56 L 546.38 594.25 L 547.60 588.92 L 548.67 583.59 L 549.58 578.27 L 550.34 572.95 L 550.95 567.65 L 551.42 562.38 L 551.74 557.13 L 551.93 551.93 L 551.98 546.77 L 551.91 541.65 L 551.71 536.60 L 551.39 531.60 L 550.97 526.68 L 550.44 521.82 L 549.80 517.04 L 549.08 512.34 L 548.27 507.72 L 547.37 503.19 L 546.41 498.75 L 545.37 494.41 L 544.28 490.16 L 543.13 486.00 L 541.94 481.95 L 540.71 478.00 L 539.44 474.14 L 538.15 470.39 L 536.85 466.74 L 535.53 463.20 L 534.20 459.75 L 532.88 456.41 L 531.57 453.16 L 530.27 450.01 L 529.00 446.95 L 527.75 443.99 L 526.54 441.12 L 525.37 438.33 L 524.24 435.63 L 523.16 433.00 L 522.14 430.45 L 521.18 427.98 L 520.29 425.57 L 519.46 423.22 L 518.71 420.93 L 518.03 418.69 L 517.44 416.50 L 516.92 414.36 L 516.50 412.24 L 516.16 410.16 L 515.91 408.10 L 515.75 406.07 L 515.68 404.04 L 515.71 402.02 L 515.83 400.00 Z" fill="url(#kagamiLoopGradient)" fill-rule="evenodd" />
          
        </g>
      </svg>

